<svg width="428" height="428" xmlns="http://www.w3.org/2000/svg" xmlns:xlink="http://www.w3.org/1999/xlink" overflow="hidden"><defs><clipPath id="clip0"><path d="M255 87 683 87 683 515 255 515Z" fill-rule="evenodd" clip-rule="evenodd"/></clipPath></defs><g clip-path="url(#clip0)" transform="translate(-255 -87)"><path d="M255 300.5C255 285.864 266.864 274 281.5 274L655.5 274C670.136 274 682 285.864 682 300.5L682 300.5C682 315.136 670.136 327 655.5 327L281.5 327C266.864 327 255 315.136 255 300.5Z" fill="#FFFFFF" fill-rule="evenodd"/><path d="M468.5 87C483.136 87 495 98.8644 495 113.5L495 487.5C495 502.136 483.136 514 468.5 514L468.5 514C453.864 514 442 502.136 442 487.5L442 113.5C442 98.8644 453.864 87 468.5 87Z" fill="#FFFFFF" fill-rule="evenodd"/></g></svg>