<svg width="321" height="341" xmlns="http://www.w3.org/2000/svg" xmlns:xlink="http://www.w3.org/1999/xlink" overflow="hidden"><defs><clipPath id="clip0"><path d="M609 292 930 292 930 633 609 633Z" fill-rule="evenodd" clip-rule="evenodd"/></clipPath></defs><g clip-path="url(#clip0)" transform="translate(-609 -292)"><path d="M614 452C614 365.844 683.62 296 769.5 296 855.38 296 925 365.844 925 452 925 538.156 855.38 608 769.5 608 683.62 608 614 538.156 614 452Z" stroke="#FFFFFF" stroke-width="8" stroke-miterlimit="8" fill="none" fill-rule="evenodd"/><path d="M719.5 448C719.5 420.662 741.662 398.5 769 398.5 796.338 398.5 818.5 420.662 818.5 448 818.5 475.338 796.338 497.5 769 497.5 741.662 497.5 719.5 475.338 719.5 448Z" stroke="#FFFFFF" stroke-width="1.33333" stroke-miterlimit="8" fill="#FFFFFF" fill-rule="evenodd"/><path d="M732.386 496.5 734.532 499.117C743.481 508.123 755.844 513.694 769.5 513.694 783.156 513.694 795.519 508.123 804.468 499.117L806.614 496.5 818.702 503.103C842.11 519.017 857.5 545.969 857.5 576.537L857.453 577.473 855.842 578.685C830.941 595.615 800.923 605.5 768.61 605.5 741.683 605.5 716.349 598.635 694.242 586.55L681.615 578.83 681.5 576.537C681.5 545.969 696.89 519.017 720.299 503.103Z" stroke="#FFFFFF" stroke-width="1.33333" stroke-miterlimit="8" fill="#FFFFFF" fill-rule="evenodd"/><path d="M673 578.849 706.231 578.849 716.5 546 726.769 578.849 760 578.849 733.115 599.151 743.384 632 716.5 611.698 689.616 632 699.885 599.151Z" fill="#FFC000" fill-rule="evenodd"/></g></svg>