<svg width="274" height="186" xmlns="http://www.w3.org/2000/svg" xmlns:xlink="http://www.w3.org/1999/xlink" overflow="hidden"><defs><clipPath id="clip0"><path d="M211 200 485 200 485 386 211 386Z" fill-rule="evenodd" clip-rule="evenodd"/></clipPath></defs><g clip-path="url(#clip0)" transform="translate(-211 -200)"><path d="M211 216C211 207.163 218.163 200 227 200L468 200C476.837 200 484 207.163 484 216L484 216C484 224.837 476.837 232 468 232L227 232C218.163 232 211 224.837 211 216Z" fill="#FFFFFF" fill-rule="evenodd"/><path d="M211 318C211 309.163 218.163 302 227 302L468 302C476.837 302 484 309.163 484 318L484 318C484 326.837 476.837 334 468 334L227 334C218.163 334 211 326.837 211 318Z" fill="#FFFFFF" fill-rule="evenodd"/><path d="M211 267C211 258.163 218.163 251 227 251L468 251C476.837 251 484 258.163 484 267L484 267C484 275.837 476.837 283 468 283L227 283C218.163 283 211 275.837 211 267Z" fill="#FFFFFF" fill-rule="evenodd"/><path d="M211 369C211 360.163 218.163 353 227 353L468 353C476.837 353 484 360.163 484 369L484 369C484 377.837 476.837 385 468 385L227 385C218.163 385 211 377.837 211 369Z" fill="#FFFFFF" fill-rule="evenodd"/></g></svg>