<svg width="283" height="250" xmlns="http://www.w3.org/2000/svg" xmlns:xlink="http://www.w3.org/1999/xlink" overflow="hidden"><defs><clipPath id="clip0"><path d="M610 171 893 171 893 421 610 421Z" fill-rule="evenodd" clip-rule="evenodd"/></clipPath></defs><g clip-path="url(#clip0)" transform="translate(-610 -171)"><path d="M611 213.5C611 201.074 621.074 191 633.5 191L727.5 191C739.926 191 750 201.074 750 213.5L750 213.5C750 225.926 739.926 236 727.5 236L633.5 236C621.074 236 611 225.926 611 213.5Z" fill="#FFFFFF" fill-rule="evenodd"/><path d="M611 397C611 384.297 621.297 374 634 374L817 374C829.703 374 840 384.297 840 397L840 397C840 409.703 829.703 420 817 420L634 420C621.297 420 611 409.703 611 397Z" fill="#FFFFFF" fill-rule="evenodd"/><path d="M633.5 420C621.074 420 611 409.926 611 397.5L611 213.5C611 201.073 621.074 191 633.5 191L633.5 191C645.927 191 656 201.074 656 213.5L656 397.5C656 409.926 645.926 420 633.5 420Z" fill="#FFFFFF" fill-rule="evenodd"/><path d="M817 420C804.297 420 794 409.703 794 397L794 325C794 312.297 804.297 302 817 302L817 302C829.703 302 840 312.297 840 325L840 397C840 409.703 829.703 420 817 420Z" fill="#FFFFFF" fill-rule="evenodd"/><path d="M676.265 290.931C666.994 281.729 666.938 266.753 676.141 257.482L676.141 257.482C685.343 248.211 700.319 248.156 709.59 257.358L756.489 303.912C765.76 313.115 765.815 328.09 756.613 337.361L756.613 337.361C747.41 346.632 732.435 346.687 723.164 337.485Z" fill="#FFFFFF" fill-rule="evenodd"/><path d="M726.194 338.312C717.223 329.407 717.169 314.916 726.074 305.946L852.57 178.51C861.475 169.54 875.966 169.486 884.937 178.391L884.936 178.391C893.907 187.295 893.961 201.786 885.056 210.757L758.56 338.192C749.655 347.163 735.164 347.216 726.193 338.312Z" fill="#FFFFFF" fill-rule="evenodd"/></g></svg>