<svg width="234" height="317" xmlns="http://www.w3.org/2000/svg" xmlns:xlink="http://www.w3.org/1999/xlink" overflow="hidden"><defs><clipPath id="clip0"><path d="M794 44 1028 44 1028 361 794 361Z" fill-rule="evenodd" clip-rule="evenodd"/></clipPath></defs><g clip-path="url(#clip0)" transform="translate(-794 -44)"><path d="M794 123.5C794 110.521 804.521 100 817.5 100L1003.5 100C1016.48 100 1027 110.521 1027 123.5L1027 123.5C1027 136.479 1016.48 147 1003.5 147L817.5 147C804.521 147 794 136.479 794 123.5Z" fill="#FFFFFF" fill-rule="evenodd"/><path d="M971.904 174.341C960.953 174.341 952.075 183.198 952.075 194.124L952.075 310.992C952.075 321.918 960.953 330.776 971.904 330.776 982.855 330.776 991.733 321.918 991.733 310.992L991.733 194.124C991.733 183.198 982.855 174.341 971.904 174.341ZM914.064 174.341C903.112 174.341 894.235 183.198 894.235 194.124L894.235 310.992C894.235 321.918 903.112 330.776 914.064 330.776 925.015 330.776 933.892 321.918 933.892 310.992L933.892 194.124C933.892 183.198 925.015 174.341 914.064 174.341ZM856.223 174.341C845.272 174.341 836.394 183.198 836.394 194.124L836.394 310.992C836.394 321.918 845.272 330.776 856.223 330.776 867.174 330.776 876.052 321.918 876.052 310.992L876.052 194.124C876.052 183.198 867.174 174.341 856.223 174.341ZM815 156 1009 156 1009 327.74C1009 345.557 994.524 360 976.666 360L847.334 360C829.476 360 815 345.557 815 327.74Z" fill="#FFFFFF" fill-rule="evenodd"/><path d="M856.739 93.5872C860.377 63.0675 888.067 41.2752 918.587 44.9129 944.066 47.9499 964.166 68.0142 967.249 93.4883Z" fill="#FFFFFF" fill-rule="evenodd"/></g></svg>