<svg width="355" height="378" xmlns="http://www.w3.org/2000/svg" xmlns:xlink="http://www.w3.org/1999/xlink" overflow="hidden"><defs><clipPath id="clip0"><path d="M41 143 396 143 396 521 41 521Z" fill-rule="evenodd" clip-rule="evenodd"/></clipPath></defs><g clip-path="url(#clip0)" transform="translate(-41 -143)"><path d="M105.466 319.675C89.6035 319.675 76.7441 332.547 76.7441 348.426L76.7441 463.426C76.7441 479.305 89.6035 492.177 105.466 492.177L331.534 492.177C347.396 492.177 360.256 479.305 360.256 463.426L360.256 348.426C360.256 332.547 347.396 319.675 331.534 319.675ZM118.437 156.911C109.994 156.911 103.15 163.763 103.15 172.214L103.15 233.424C103.15 241.876 109.994 248.727 118.437 248.727L263.755 248.727C272.198 248.727 279.042 241.876 279.042 233.424L279.042 172.214C279.042 163.763 272.198 156.911 263.755 156.911ZM71.6485 143 292.368 143 395 248.284 395 490.322C395 506.713 381.726 520 365.351 520L71.6485 520C55.2741 520 42 506.713 42 490.322L42 172.678C42 156.287 55.2741 143 71.6485 143Z" fill="#FFFFFF" fill-rule="evenodd"/><rect x="209" y="167" width="45" height="74" fill="#FFFFFF"/></g></svg>